<svg xmlns="http://www.w3.org/2000/svg" width="65" height="37" viewBox="0 0 46 26">
    <g fill-rule="nonzero">
        <path
            d="M45.325 24.209h-.765v-9.345c.418 0 .72-.3.72-.668a.671.671 0 0 0-.675-.668H32.317v-.8h1.485c.31 0 .58-.209.655-.506a.665.665 0 0 0-.337-.751L23.675 5.963V4.895h3.646c.234 0 .451-.12.574-.316a.66.66 0 0 0 .03-.65l-.57-1.125.57-1.126a.66.66 0 0 0-.03-.65.677.677 0 0 0-.574-.316h-3.646C23.675.299 23.373 0 23 0a.671.671 0 0 0-.675.668v5.295L11.88 11.471a.665.665 0 0 0 .318 1.256h1.485v.801H1.395a.671.671 0 0 0-.675.668c0 .369.302.668.675.668l.045 9.345H.675a.671.671 0 0 0-.675.667c0 .369.302.668.675.668h44.65a.671.671 0 0 0 .675-.668.671.671 0 0 0-.675-.667zm-2.116-9.345v9.345H32.317v-9.345h10.892zm-12.242 9.345h-1.53V12.727h1.53V24.21zM19.444 12.727V24.21h-1.53V12.727h1.53zm1.35 0h1.53V24.21h-1.53V12.727zm2.881 0h1.53V24.21h-1.53V12.727zm2.88 0h1.531V24.21h-1.53V12.727zm-.326-10.68l-.232.458a.66.66 0 0 0 0 .597l.232.458h-2.554V2.047h2.554zM23 7.12l8.102 4.272H14.898L23 7.12zm-6.436 5.607V24.21h-1.53V12.727h1.53zM2.79 14.864h10.892v9.345H2.791v-9.345z">
        </path>
        <path
            d="M11.6 20.555c-.39 0-.705.291-.705.65v.695c0 .36.316.65.706.65.39 0 .706-.29.706-.65v-.694c0-.36-.316-.651-.706-.651zM9.382 20.555c-.39 0-.707.291-.707.65v.695c0 .36.317.65.707.65.39 0 .706-.29.706-.65v-.694c0-.36-.316-.651-.706-.651zM7.162 20.555c-.39 0-.706.291-.706.65v.695c0 .36.316.65.706.65.39 0 .706-.29.706-.65v-.694c0-.36-.316-.651-.706-.651zM4.943 20.555c-.39 0-.706.291-.706.65v.695c0 .36.316.65.706.65.39 0 .706-.29.706-.65v-.694c0-.36-.316-.651-.706-.651zM11.6 16.364c-.39 0-.705.292-.705.652v2.088c0 .36.316.653.706.653.39 0 .706-.293.706-.653v-2.088c0-.36-.316-.652-.706-.652zM9.382 16.364c-.39 0-.707.292-.707.652v2.088c0 .36.317.653.707.653.39 0 .706-.293.706-.653v-2.088c0-.36-.316-.652-.706-.652zM7.162 16.364c-.39 0-.706.292-.706.652v2.088c0 .36.316.653.706.653.39 0 .706-.293.706-.653v-2.088c0-.36-.316-.652-.706-.652zM4.943 16.364c-.39 0-.706.292-.706.652v2.088c0 .36.316.653.706.653.39 0 .706-.293.706-.653v-2.088c0-.36-.316-.652-.706-.652zM41.057 22.55c.39 0 .706-.29.706-.65v-.694c0-.36-.316-.651-.706-.651-.39 0-.706.291-.706.65v.695c0 .36.316.65.706.65zM38.838 22.55c.39 0 .706-.29.706-.65v-.694c0-.36-.316-.651-.706-.651-.39 0-.706.291-.706.65v.695c0 .36.316.65.706.65zM36.618 22.55c.39 0 .707-.29.707-.65v-.694c0-.36-.317-.651-.707-.651-.39 0-.706.291-.706.65v.695c0 .36.316.65.706.65zM34.6 22.55c.39 0 .707-.29.707-.65v-.694c0-.36-.316-.651-.706-.651-.39 0-.706.291-.706.65v.695c0 .36.316.65.706.65zM41.057 19.757c.39 0 .706-.293.706-.653v-2.088c0-.36-.316-.652-.706-.652-.39 0-.706.292-.706.652v2.088c0 .36.316.653.706.653zM38.838 19.757c.39 0 .706-.293.706-.653v-2.088c0-.36-.316-.652-.706-.652-.39 0-.706.292-.706.652v2.088c0 .36.316.653.706.653zM36.618 19.757c.39 0 .707-.293.707-.653v-2.088c0-.36-.317-.652-.707-.652-.39 0-.706.292-.706.652v2.088c0 .36.316.653.706.653zM34.6 19.757c.39 0 .707-.293.707-.653v-2.088c0-.36-.316-.652-.706-.652-.39 0-.706.292-.706.652v2.088c0 .36.316.653.706.653zM21.659 10.577h2.884a.688.688 0 0 0 .676-.699.688.688 0 0 0-.676-.698H21.66a.688.688 0 0 0-.677.698c0 .386.303.699.677.699z">
        </path>
    </g>
</svg>