<svg xmlns="http://www.w3.org/2000/svg" width="54" height="54" viewBox="0 0 54 54"><path fill="#df4d3b" d="M0 27a27 27 0 1 1 54 0 27 27 0 0 1-54 0z"/><path fill="#fff" d="M22.32 28.85h4.16a5.3 5.3 0 0 1-5.02 3.39 5.2 5.2 0 0 1-5.23-4.87 5.16 5.16 0 0 1 5.27-5.27c1.36 0 2.61.5 3.54 1.32a.6.6 0 0 0 .78-.01l1.53-1.38a.54.54 0 0 0 0-.79A8.67 8.67 0 0 0 21.67 19c-4.69-.09-8.64 3.61-8.67 8.11-.03 4.54 3.79 8.23 8.5 8.23 4.54 0 8.24-3.42 8.49-7.71l.01-1.88h-7.68a.57.57 0 0 0-.57.55v2.01c0 .3.26.54.57.54zM34 24a1 1 0 0 1 2 0v2h2a1 1 0 0 1 0 2h-2v2a1 1 0 0 1-2 0v-2h-2a1 1 0 0 1 0-2h2z"/></svg>