<svg xmlns="http://www.w3.org/2000/svg" width="54" height="54" viewBox="0 0 54 54"><path fill="#47546d" d="M0 27a27 27 0 1 1 54 0 27 27 0 0 1-54 0z"/><path fill="#fff" d="M35.96 27.01v6.95H31.9v-6.49c0-1.62-.59-2.74-2.06-2.74-1.12 0-1.79.75-2.09 1.48-.1.26-.13.62-.13.98v6.77h-4.07s.06-10.98 0-12.12h4.07v1.72a.14.14 0 0 0-.03.04h.03v-.04c.54-.83 1.5-2 3.66-2 2.68 0 4.68 1.73 4.68 5.45zm-14.39-8.92c0 1.17-.88 2.1-2.3 2.1h-.02c-1.37 0-2.25-.93-2.25-2.1 0-1.19.91-2.09 2.3-2.09 1.39 0 2.25.9 2.27 2.09zm-4.33 15.87h4.07V21.84h-4.07z"/></svg>