<?xml version="1.0" encoding="utf-8"?>
<!-- Generator: Adobe Illustrator 21.1.0, SVG Export Plug-In . SVG Version: 6.00 Build 0)  -->
<svg version="1.1" id="Capa_1" xmlns="http://www.w3.org/2000/svg" xmlns:xlink="http://www.w3.org/1999/xlink" x="0px" y="0px"
	 viewBox="0 0 33.3 35.8" style="enable-background:new 0 0 33.3 35.8;" xml:space="preserve">
<style type="text/css">
	.st0{fill:#36B959;}
</style>
<g>
	<g>
		<path class="st0" d="M21.6,17H7.8c-0.6,0-1.1,0.5-1.1,1.1c0,0.6,0.5,1.1,1.1,1.1h13.7c0.6,0,1.1-0.5,1.1-1.1
			C22.6,17.4,22.2,17,21.6,17z"/>
		<path class="st0" d="M21.6,21.7H7.8c-0.6,0-1.1,0.5-1.1,1.1s0.5,1.1,1.1,1.1h13.7c0.6,0,1.1-0.5,1.1-1.1
			C22.7,22.2,22.2,21.7,21.6,21.7z"/>
		<path class="st0" d="M21.6,26.4H7.8c-0.6,0-1.1,0.5-1.1,1.1s0.5,1.1,1.1,1.1h13.7c0.6,0,1.1-0.5,1.1-1.1S22.2,26.4,21.6,26.4z"/>
		<path class="st0" d="M21.2,10c0.6-0.4,1-1.1,1-1.9c0-1.3-1.1-2.3-2.3-2.3c-1.3,0-2.3,1.1-2.3,2.3c0,0.8,0.4,1.5,1,1.9
			c-1.4,0.5-2.5,1.9-2.5,3.5h7.6C23.6,11.9,22.6,10.5,21.2,10z"/>
	</g>
</g>
<path class="st0" d="M19.7,31.1L19.7,31.1l-15.8,0V13.2l9.6-0.1l0-9.9h12.5v18.6h3.2V0H14.5h-4.2h-0.2L0.7,9.8V10v4.5v19.8h22.2
	L19.7,31.1z M10.3,4.4l0,5.5L5,10L10.3,4.4z"/>
<g>
	<polygon class="st0" points="29,30.5 29,25 26.2,25 26.2,30.5 24.6,28.9 22.6,30.9 27.6,35.8 32.6,30.9 30.6,28.9 	"/>
</g>
</svg>
