<svg xmlns="http://www.w3.org/2000/svg" xmlns:xlink="http://www.w3.org/1999/xlink" width="134" height="148" viewBox="0 0 134 148"><defs><path id="uwq4a" d="M534 262.5a62.5 62.5 0 1 1 125 0 62.5 62.5 0 0 1-125 0z"/><path id="uwq4b" d="M539 262.5a57.5 57.5 0 1 1 115 0 57.5 57.5 0 0 1-115 0z"/><path id="uwq4c" d="M626 201.54l-21.08-3.59L595 179l-9.92 18.95-21.08 3.59 14.95 15.3-3.1 21.16 19.15-9.5 19.16 9.5-3.1-21.17z"/><path id="uwq4d" d="M626 201.54l-21.08-3.59L595 179v49.5l19.16 9.5-3.1-21.17z"/><path id="uwq4e" d="M565.45 231.98l6.8-14.7-15.94 2.76L544.45 209l-2.3 16.05-14.15 7.89 14.53 7.15 3.12 15.91 11.28-11.63 16.07 1.95z"/><path id="uwq4f" d="M566.33 231.78l6.92-14.58-16.2 2.74L545 209l12.68 35.07L574 246z"/><path id="uwq4g" d="M647.86 225.05l-2.3-16.05-11.87 11.04-15.95-2.77 6.81 14.7-7.55 14.35 16.07-1.95L644.35 256l3.12-15.91 14.53-7.15z"/><path id="uwq4h" d="M647.82 225.05l-2.3-16.05L633 244.37 644.31 256l3.13-15.91 14.56-7.15z"/><path id="uwq4i" d="M595.1 245H587v56.63h8.1z"/><path id="uwq4j" d="M571.37 252.14l-.97-2.14-7.4 3.23.97 2.15c4.12 9.12 7 18.75 8.56 28.61l4-.6 4-.62a119.6 119.6 0 0 0-9.16-30.63z"/><path id="uwq4k" d="M624.87 250.18l-.98 2.15a119.83 119.83 0 0 0-9.26 30.8l4.04.62 4.05.6c1.57-9.91 4.48-19.59 8.65-28.76l.98-2.16z"/><path id="uwq4l" d="M600.08 301.8v-56.94h8.18v56.94z"/><path id="uwq4m" d="M637.21 194.8l5.52 5.52-5.64 5.65-5.52-5.52z"/><path id="uwq4n" d="M614.32 178.14l5.52 5.52-5.64 5.65-5.52-5.52z"/><path id="uwq4o" d="M554 194.34l5.66 5.66-5.66 5.66-5.66-5.66z"/></defs><g><g transform="translate(-528 -177)"><use fill="#fff" xlink:href="#uwq4a"/></g><g transform="translate(-528 -177)"><use fill="#4cceb9" xlink:href="#uwq4b"/></g><g transform="translate(-528 -177)"><g><use fill="#f7971d" xlink:href="#uwq4c"/></g><g><use fill="#dd8d26" xlink:href="#uwq4d"/></g><g><use fill="#1695ba" xlink:href="#uwq4e"/></g><g><use fill="#0f80a1" xlink:href="#uwq4f"/></g><g><use fill="#f05938" xlink:href="#uwq4g"/></g><g><use fill="#e63f1a" xlink:href="#uwq4h"/></g><g><g><use fill="#f5e59d" xlink:href="#uwq4i"/></g><g><use fill="#f5e59d" xlink:href="#uwq4j"/></g></g><g><g><use fill="#efcd2e" xlink:href="#uwq4k"/></g><g><use fill="#efcd2e" xlink:href="#uwq4l"/></g><g><use fill="#f3df82" xlink:href="#uwq4m"/></g><g><use fill="#efcd2e" xlink:href="#uwq4n"/></g></g><g><use fill="#f3d95e" xlink:href="#uwq4o"/></g></g></g></svg>