<svg xmlns="http://www.w3.org/2000/svg" viewBox="0 0 75 100"><defs><style>.a{fill:#36b959;}</style></defs><title>icon-build-cv</title><rect class="a" x="8.85" y="50.36" width="10.5" height="4"/><rect class="a" x="8.85" y="56.96" width="17.4" height="4"/><rect class="a" x="8.85" y="63.36" width="17.4" height="4"/><path class="a" d="M74.35,32.06l-4.6,4.6-11-11,4.6-4.6a2.09,2.09,0,0,1,3.1,0l7.8,7.8A2.13,2.13,0,0,1,74.35,32.06Zm-46.2,35.3L41.45,65l-11-11ZM32,52.46l11,11,25.1-25.1-11-11Z"/><polygon class="a" points="55.05 55.56 55.05 75.26 4.25 75.26 4.25 40.36 39.95 40.36 44.25 36.06 4.25 36.06 -0.05 36.06 -0.05 40.36 -0.05 75.26 -0.05 79.66 4.25 79.66 55.05 79.66 59.35 79.66 59.35 75.26 59.35 51.16 55.05 55.56"/></svg>