<svg xmlns="http://www.w3.org/2000/svg" viewBox="0 0 75 100"><defs><style>.a{fill:#36bb58;}</style></defs><title>icon-cv--alt</title><path class="a" d="M62.22,31.47s0-.07,0-.1v0a.35.35,0,0,0,0-.11v0a.36.36,0,0,0,0-.11h0a.17.17,0,0,0-.06-.1s0,0,0,0a.33.33,0,0,0-.06-.08s0,0,0,0a.14.14,0,0,0-.06-.07s0,0,0,0a.6.6,0,0,0-.08-.08s0,0,0,0l-9.89-9.89v0l-.09-.07s0,0,0,0l-.08-.05s0,0,0,0a.93.93,0,0,0-.1,0s0,0,0,0l-.12,0h0l-.11-.05h0l-.11,0h0l-.1,0H15.3a1.38,1.38,0,0,0-1.41,1.38V78.24a1.42,1.42,0,0,0,1.41,1.42H60.8a1.43,1.43,0,0,0,1.42-1.42V31.47Zm-9.9-6.34L57.4,30.2H52.32Zm-35.6,51.7V23.14H49.5v8.47A1.42,1.42,0,0,0,50.91,33h8.48v43.8Z"/><path class="a" d="M27,41.5a1.4,1.4,0,0,0,1.4,1.4h9a1.4,1.4,0,0,0,0-2.8H28.37A1.4,1.4,0,0,0,27,41.5Z"/><path class="a" d="M37,34.51a4.2,4.2,0,1,0-4.2,4.19A4.19,4.19,0,0,0,37,34.51Zm-5.6,0a1.4,1.4,0,1,1,1.4,1.39A1.4,1.4,0,0,1,31.44,34.51Z"/><path class="a" d="M22.77,48.49H42.91a1.4,1.4,0,0,0,1.4-1.4V42.63a1.4,1.4,0,1,0-2.8,0v3.06H24.17V28.35H41.51v9.51a1.4,1.4,0,0,0,2.8,0V27a1.4,1.4,0,0,0-1.4-1.39H22.77A1.39,1.39,0,0,0,21.38,27V47.09A1.4,1.4,0,0,0,22.77,48.49Z"/><path class="a" d="M53.82,52.68h-31a1.4,1.4,0,0,0,0,2.8H53.82a1.4,1.4,0,0,0,0-2.8Z"/><path class="a" d="M53.82,59.68h-31a1.4,1.4,0,0,0,0,2.79H53.82a1.4,1.4,0,1,0,0-2.79Z"/><path class="a" d="M53.82,66.67h-31a1.4,1.4,0,0,0,0,2.8H53.82a1.4,1.4,0,1,0,0-2.8Z"/></svg>